:SAMPLES-PER-SECOND 25
:FULLY-SPECIFIED
:DEGREES
541
root  7.31469 75.4091 -45.2843 11.5638 4.85831 -1.74153
RightUpLeg  -25.6857 -5.9082 3.55665
RightLeg  21.5753 -2.66056 -1.3744
RightFoot  -6.70123 -0.226332 4.45834
RightToes  2.84633e-005 7.89722e-005 -0.000426369
Spine  8.1408 -1.88409 -0.812364
Spine1  16.3748 -3.60927 -1.60308
HEad  25.1567 -1.25449 -2.95656
LeftShoulder1  -3.88251e-019 0 -3.92111e-022
LeftArm  -32.06 -8.45858 -79.5772
LeftForeArm  19.6297 -5.3269 1.57528
LeftHand  -0.916226 -3.29794 12.4646
RightShoulder  7.45443e-017 -2.42657e-020 1.96277e-018
RightArm  -0.00417784 -13.2931 70.3126
RightForeArm  -3.90436 33.2028 7.58891
RightHand  -1.74167 12.4294 -11.6967
LeftUpLeg  -27.1378 -3.29931 2.60146
LeftLeg  20.0177 13.5905 5.74473
LeftFoot  -0.423064 -0.449655 4.72924
LeftToes  3.91355e-005 3.11907e-005 -4.10385e-006
542
root  6.92902 75.6746 -45.0967 10.517 3.91601 -1.66276
RightUpLeg  -22.6484 -4.8645 3.72152
RightLeg  18.1946 -3.07948 -1.26228
RightFoot  -4.91992 -0.305037 4.83172
RightToes  2.84633e-005 7.89722e-005 -0.000426369
Spine  8.12686 -1.80012 -0.92307
Spine1  16.3419 -3.44735 -2.00244
HEad  25.0569 -0.614204 -4.12469
LeftShoulder1  -3.88251e-019 0 -3.92111e-022
LeftArm  -31.7981 -10.5311 -80.9913
LeftForeArm  18.6142 -5.87316 2.00096
LeftHand  -1.02855 -4.17981 12.7181
RightShoulder  7.45443e-017 -2.42657e-020 1.96277e-018
RightArm  -1.24995 -11.9956 70.5469
RightForeArm  -4.79499 30.052 6.80843
RightHand  -2.08467 12.7776 -13.6473
LeftUpLeg  -24.4804 -2.06143 2.84315
LeftLeg  17.8194 13.4048 5.21032
LeftFoot  0.0941969 -0.446276 4.45306
LeftToes  3.91355e-005 3.11907e-005 -4.10385e-006
543
root  6.64707 75.9438 -44.8397 9.6254 3.64795 -1.7611
RightUpLeg  -19.312 -3.38106 3.47704
RightLeg  14.3054 -4.51267 -0.56801
RightFoot  -3.38881 -0.384266 5.19681
RightToes  2.84633e-005 7.89722e-005 -0.000426369
Spine  7.66971 -1.8934 -0.74248
Spine1  15.4159 -3.67773 -1.79965
HEad  26.833 -0.0732279 -5.74498
LeftShoulder1  -3.88251e-019 0 -3.92111e-022
LeftArm  -31.1177 -11.5773 -82.2262
LeftForeArm  18.7233 -5.96621 1.22226
LeftHand  -0.907154 -4.30821 11.1302
RightShoulder  7.45443e-017 -2.42657e-020 1.96277e-018
RightArm  -0.315778 -10.6571 70.282
RightForeArm  -6.02086 26.1035 5.81295
RightHand  -1.9841 12.0902 -13.4945
LeftUpLeg  -21.4242 -0.214193 2.95576
LeftLeg  14.4951 12.063 4.28213
LeftFoot  0.855114 -0.416341 3.83942
LeftToes  3.91355e-005 3.11907e-005 -4.10385e-006
544
root  6.36149 76.1447 -44.5475 8.48206 3.39367 -1.77761
RightUpLeg  -15.9496 -0.598724 3.27283
RightLeg  11.001 -7.32462 -0.382871
RightFoot  -2.24669 -0.397927 4.81156
RightToes  2.84633e-005 7.89722e-005 -0.000426369
Spine  7.0404 -1.9947 -0.557084
Spine1  14.1437 -3.91505 -1.49526
HEad  29.2525 1.33947 -7.02844
LeftShoulder1  -3.88251e-019 0 -3.92111e-022
LeftArm  -30.3182 -12.5253 -83.7163
LeftForeArm  20.8195 -4.96393 1.07658
LeftHand  -0.97951 -4.6912 11.5218
RightShoulder  7.45443e-017 -2.42657e-020 1.96277e-018
RightArm  -4.41667 -9.99129 70.7065
RightForeArm  -0.715027 21.2415 5.85627
RightHand  -1.84287 11.771 -12.7971
LeftUpLeg  -18.2162 1.1789 3.1055
LeftLeg  11.4447 11.0752 3.63247
LeftFoot  1.69153 -0.44035 3.76767
LeftToes  3.91355e-005 3.11907e-005 -4.10385e-006
545
root  6.13225 76.3007 -44.2414 6.91428 2.75094 -2.02772
RightUpLeg  -12.2894 1.71878 4.02001
RightLeg  7.96928 -9.0873 -0.845347
RightFoot  -1.18906 -0.409272 4.51311
RightToes  2.84633e-005 7.89722e-005 -0.000426369
Spine  6.61418 -1.90254 -0.260076
Spine1  13.2764 -3.77145 -1.01448
HEad  30.7527 1.62561 -8.26523
LeftShoulder1  -3.88251e-019 0 -3.92111e-022
LeftArm  -29.7448 -13.6812 -85.3727
LeftForeArm  24.072 -3.92299 1.24278
LeftHand  -1.08246 -4.79095 12.6059
RightShoulder  7.45443e-017 -2.42657e-020 1.96277e-018
RightArm  -9.96443 -9.72995 70.1927
RightForeArm  5.6616 18.2661 6.95308
RightHand  -1.71452 11.3458 -12.2292
LeftUpLeg  -14.8269 2.20303 3.70214
LeftLeg  9.20798 10.787 3.20402
LeftFoot  2.10025 -0.425125 3.49858
LeftToes  3.91355e-005 3.11907e-005 -4.10385e-006
546
root  5.96746 76.3789 -43.941 5.74982 2.42028 -2.18727
RightUpLeg  -9.59235 2.45481 4.8111
RightLeg  6.06109 -9.52389 -1.25389
RightFoot  -0.692741 -0.427279 4.53071
RightToes  2.84633e-005 7.89722e-005 -0.000426369
Spine  6.1526 -1.84137 -0.14064
Spine1  12.351 -3.66257 -0.945241
HEad  30.9106 1.74175 -8.24641
LeftShoulder1  -3.88251e-019 0 -3.92111e-022
LeftArm  -28.3913 -14.6511 -86.1206
LeftForeArm  26.1061 -3.03061 0.577213
LeftHand  -0.917957 -4.7931 10.7393
RightShoulder  7.45443e-017 -2.42657e-020 1.96277e-018
RightArm  -15.0622 -9.60957 70.2516
RightForeArm  10.2934 15.8374 7.96444
RightHand  -1.87129 11.9928 -12.828
LeftUpLeg  -12.8356 2.47494 4.15585
LeftLeg  8.82945 10.7878 3.21684
LeftFoot  1.8857 -0.420382 3.52635
LeftToes  3.91355e-005 3.11907e-005 -4.10385e-006
547
root  5.84617 76.4159 -43.6583 4.77246 2.6313 -2.3905
RightUpLeg  -7.32267 2.63401 5.44377
RightLeg  4.57358 -9.94216 -1.36873
RightFoot  -0.508001 -0.446582 4.67008
RightToes  2.84633e-005 7.89722e-005 -0.000426369
Spine  5.70301 -2.04957 0.270278
Spine1  11.4456 -4.11356 -0.32789
HEad  29.7638 1.99471 -9.32317
LeftShoulder1  -3.88251e-019 0 -3.92111e-022
LeftArm  -27.638 -15.3926 -87.0118
LeftForeArm  27.186 -1.76797 0.500387
LeftHand  -0.907403 -4.94705 10.4699
RightShoulder  7.45443e-017 -2.42657e-020 1.96277e-018
RightArm  -18.2984 -9.71657 70.1956
RightForeArm  13.2751 14.5757 8.08603
RightHand  -1.7603 11.6635 -12.3201
LeftUpLeg  -11.4294 2.37236 4.50646
LeftLeg  8.88545 10.7113 3.45217
LeftFoot  1.79611 -0.369644 3.11403
LeftToes  3.91355e-005 3.11907e-005 -4.10385e-006
